<?xml version="1.0" encoding="utf-8" ?><svg xmlns="http://www.w3.org/2000/svg" xmlns:xlink="http://www.w3.org/1999/xlink" width="1024" height="1024" viewBox="0 0 1024 1024"><path fill="white" d="M0 0L1024 0L1024 1024L0 1024L0 0Z"/><path fill="#0887C9" d="M492.743 234.271C502.833 232.346 524.534 233.467 534.942 236.066C546.622 237.65 563.75 242.896 574.101 248.78C583.242 250.446 604.366 266.834 610.705 274.231C623.893 285.751 630.2 300.664 633.401 317.526C644.291 326.727 654.645 334.518 665.491 343.335C664.09 348.75 663.495 354.171 662.168 359.454C677.309 371.64 693.257 383.138 708.545 395.115C714.49 399.772 724.449 406.767 729.804 411.67L732.047 413.756C731.017 416.96 718.549 438.47 716.078 443.084C706.866 460.449 699.116 478.552 692.909 497.204C693.559 497.959 694.298 500.191 694.283 501.146C693.895 527.003 673.612 539.538 650.407 540.935C656.668 536.282 659.492 533.481 664.025 527.223C649.521 535.173 642.022 536.437 625.695 537.551C635.044 531.894 638.234 529.332 643.713 519.703C634.523 527.043 628.76 529.822 616.526 530.639C625.886 514.615 626.347 510.181 626.198 492.003C620.668 487.427 610.861 495.584 607.476 500.307C595.227 517.397 605.686 526.804 613.666 541.268C625.248 562.26 614.405 598.138 602.303 616.663C609.701 592.817 612.529 569.11 594.043 549.902C593.423 562.273 593.936 574.937 593.609 587.189C593.187 603.01 595.61 620.819 582.238 632.23C578.128 635.737 573.109 639.006 567.693 639.86C557.526 648.694 519.278 660.06 504.628 659.99C489.932 659.919 477.665 648.721 478.861 632.339L480.368 632.38C480.092 651.651 501.193 660.774 515.874 650.375C531.474 639.325 530.25 615.251 524.469 599.19C519.082 584.227 506.031 575.795 496.786 563.036C496.141 569.177 496.611 589.657 496.979 595.996C502.041 596.132 518.991 594.964 521.855 598.123C522.037 600.261 522.302 599.395 521.553 601.032C518.388 602.214 501.362 601.875 496.575 601.985C496.456 606.924 495.394 618.301 498.342 621.854C499.397 623.148 500.939 623.95 502.604 624.073C506.862 624.422 510.34 620.954 510.62 616.89C510.834 613.79 509.073 612.478 507.23 610.323C510.887 610.436 513.128 613.165 513.763 616.717C516.039 626.744 500.876 632.185 495.323 625.866C488.646 618.268 490.99 594.891 491.062 585.528C487.598 581.262 471.63 565.578 466.982 562.26C465.27 561.84 464.066 562.608 462.363 563.295C468.145 577.732 472.086 588.642 465.851 604.053C462.929 611.275 450.285 624.421 461.197 628.389C470.616 631.814 480.06 623.295 475.064 614.02C474.044 612.192 471.367 611.066 469.681 609.654C474.138 609.086 478.758 614.519 478.854 618.762C479.325 634.37 462.961 639.791 449.993 639.514C434.772 639.188 416.45 632.753 405.348 622.076C393.008 610.209 391.676 588.856 404.851 576.96C405.144 576.697 405.442 576.439 405.746 576.187L405.3 578.297C394.609 589.676 396.809 608.554 408.002 618.655C413.109 623.292 419.912 625.601 426.786 625.031C434.778 624.431 441.69 620.027 446.666 613.932C452.491 606.766 455.22 597.574 454.25 588.391C453.893 584.989 452.984 581.668 451.558 578.558C450.665 576.7 449.612 574.784 448.645 572.951L448.358 572.451C436.702 551.728 433.797 518.649 440.057 495.583C440.723 493.398 441.408 490.395 441.989 488.126C450.865 463.517 459.867 445.794 480.397 428.326C482.419 426.677 482.93 426.366 484.157 424.101C483.422 420.4 483.459 416.348 483.367 412.551C456.658 419.35 438.56 436.277 424.725 459.67C415.878 474.459 409.851 490.761 406.948 507.748C403.788 527.091 405.919 548.198 389.199 562.096C386.243 564.553 380.216 568.32 381.66 572.554C384.104 579.715 394.971 579.894 398.145 573.165C399.27 570.778 399.09 565.262 400.071 564.637C402.169 566.506 404.209 570.359 403.429 573.144C401.539 579.89 394.546 584.441 387.74 584.032C371.952 583.084 357.269 572.658 346.556 561.713C337.979 552.836 332.205 540.833 332.692 528.376C333.033 519.667 337.78 510.896 346.402 507.997L346.914 508.847C327.183 519.91 337.244 555.867 358.856 557.4C373.921 558.468 389.767 544.278 391.833 529.695C393.277 519.507 392.552 508.572 393.408 498.182C385.385 503.414 377.723 515.133 371.001 522.602C366.378 523.887 360.559 525.586 360.293 531.747C360.133 535.433 365.145 539.808 368.766 539.287C372.579 538.739 374.506 533.68 376.514 530.802L377.117 531.463C379.591 546.358 356.697 547.984 355.362 532.642C355.066 529.398 356.023 526.165 358.038 523.605C361.776 518.848 366.315 519.153 370.228 514.849C372.891 511.92 375.244 508.772 377.704 505.683L392.066 487.876C389.853 484.725 383.838 476.901 379.418 477.898C374.936 478.909 372.479 483.421 369.482 486.243C368.652 488.899 368.226 492.841 366.613 495.034C356.848 508.311 337.106 504.619 325.426 496.6C312.385 487.646 305.191 473.058 302.336 457.981C300.187 444.432 300.192 432.654 307.535 420.392C312.804 411.593 332.658 403.066 336.49 417.818C336.754 418.835 336.173 421.289 335.292 422.183L334.705 422.035C334.832 419.392 335.185 416.686 332.761 415.322C315.325 405.513 303.474 433.818 308.439 447.63C310.715 453.961 314.215 460.523 319.36 463.095C343.242 475.033 359.489 444.328 368.768 427.952L371.181 423.637C377.811 412.866 388.362 398.971 396.909 389.673C388.566 389.74 380.222 389.732 371.878 389.65C367.4 395.968 356.408 413.893 348.592 416.105C343.38 417.58 335.268 410.267 334.978 404.238C317.109 405.405 311.641 386.294 312.96 371.981C314.549 354.749 318.691 337.995 331.874 325.709C338.77 318.752 353.607 315.201 360.88 323.342C367.186 330.401 360.844 342.333 351.109 339.969C354.405 339.545 359.634 336.269 360.21 333.32C362.376 322.243 347.233 318.459 339.67 323.911C332.95 328.756 327.704 333.318 325.77 341.142C322.593 353.99 329.517 367.687 342.847 370.283C361.649 373.684 373.928 357.359 385.744 345.739C390.908 340.661 395.011 337.39 401.066 333.427L400.941 332.622C400.446 329.378 399.958 328.424 401.851 325.84C405.264 324.081 406.304 327.099 407.334 329.742C411.41 327.777 415.334 326.471 419.585 324.97C419.963 311.44 420.617 307.644 405.483 307.3C400.875 311.314 393.726 321.683 389.545 326.978C382.576 336.008 375.72 345.164 368.385 353.901C364.751 358.229 358.614 369.335 352.367 369.029L352.169 368.544C354.286 366.168 358.887 361.518 357.336 358.103C355.839 354.804 351.533 350.125 347.266 351.743C343.525 353.161 342.894 358.628 341.62 359.412L340.927 358.601C339.797 353.706 343.17 348.771 348.061 347.746C353.078 346.695 357.435 349.472 361.362 352.205C366.881 346.599 372.41 339.135 377.259 332.836C383.719 324.384 390.245 315.982 396.837 307.633C387.192 308.025 371.456 310.053 369.075 297.488C364.625 299.885 361.317 302.065 357.147 304.921C365.964 291.779 382.115 276.935 395.473 268.68C412.128 256.297 441.196 262.548 460.723 261.113C464.366 260.845 468.117 260.666 471.779 260.401C475.019 256.464 476.71 251.533 481.701 250.139C470.85 247.979 442.841 246.264 432.382 249.134L430.583 248.093C448.441 240.934 473.595 235.157 492.743 234.271Z"/><path fill="#F5B543" d="M492.525 368.556C474.673 357.283 468.817 335.339 476.639 316.086C480.634 306.465 488.354 298.872 498.039 295.037C507.495 291.187 519.522 291.256 528.815 295.462C540.434 300.722 545.125 308.751 549.56 320.001L544.068 323.746C585.576 305.45 622.046 315.004 653.301 346.773C651.733 352.295 650.696 357.993 649.734 363.644C670.618 375.623 691.94 391.084 713.239 402.834C717.533 405.203 725.724 410.328 729.804 411.67L732.047 413.756C724.33 413.852 716.617 414.15 708.916 414.649C690.71 415.957 688.394 417.641 671.445 410.446C674.514 418.276 676.41 422.291 680.814 429.498C692.19 429.351 697.096 427.903 704.938 437.485C703.282 445.829 700.231 456.097 697.954 464.44C680.469 472.85 662.065 480.886 644.941 489.972C624.643 467.665 604.04 457.77 582.543 485.852C575.021 484.671 566.472 483.208 559.144 481.193C572.883 448.829 605.026 452.27 633.685 458.506C617.761 448.906 595.18 441.317 576.597 446.017C561.618 449.805 551.11 461.014 543.351 473.78C536.565 468.969 531.517 465.535 525.51 459.722C552.923 420.097 588.487 421.675 630.225 435.766C591.483 409.679 547.365 408.321 515.272 445.085C511.08 438.096 507.992 426.86 505.45 418.77C511.999 410.953 523.59 403.872 533.192 400.721C562.976 390.947 586.48 396.468 613.389 409.297C599.625 397.538 589.858 392.997 572.886 387.774C568.868 374.749 566.085 362.98 561.509 349.535C549.178 348.391 537.765 347.431 525.397 346.951C529.443 342.303 532.789 337.119 532.794 330.717C532.802 319.592 522.797 310.448 511.8 310.826C506.852 310.988 502.184 313.159 498.873 316.838C495.219 320.891 492.803 327.353 493.234 332.808C493.856 340.679 498.369 344.823 503.692 349.71C498.759 356.441 496.331 361.206 492.525 368.556Z"/><path fill="#0887C9" d="M584.365 354.718C598.486 357.709 619.209 350.017 628.935 361.641C632.101 365.426 633.167 377.25 637.554 381.108C647.786 389.41 661.635 395.358 672.389 403.365C674.015 404.575 677.443 406.157 678.348 407.585C675.067 406.832 670.151 404.268 666.882 402.917C654.644 397.857 641.863 391.178 628.593 389.808C625.559 383.13 622.757 378.248 618.593 372.173C603.193 373.814 596.94 367.976 584.968 358.718C584.158 356.069 583.693 358.602 584.365 354.718Z"/><path fill="#2A81B1" d="M574.716 351.679C577.913 352.753 581.13 353.766 584.365 354.718C583.693 358.602 584.158 356.069 584.968 358.718C581.289 356.696 578.046 354.213 574.716 351.679Z"/><path fill="white" d="M394.545 420.88C395.802 423.893 397.303 426.587 400.545 427.712C405.283 429.356 418.588 428.645 423.632 427.93C418.696 433.969 414.053 440.224 410.227 447.037C408.781 450.046 407.88 451.818 406.116 454.648C401.853 464.701 398.344 473.719 395.576 484.346C394.59 489.219 394.254 493.531 393.408 498.182C385.385 503.414 377.723 515.133 371.001 522.602C366.378 523.887 360.559 525.586 360.293 531.747C360.133 535.433 365.145 539.808 368.766 539.287C372.579 538.739 374.506 533.68 376.514 530.802L377.117 531.463C379.591 546.358 356.697 547.984 355.362 532.642C355.066 529.398 356.023 526.165 358.038 523.605C361.776 518.848 366.315 519.153 370.228 514.849C372.891 511.92 375.244 508.772 377.704 505.683L392.066 487.876C389.853 484.725 383.838 476.901 379.418 477.898C374.936 478.909 372.479 483.421 369.482 486.243C369.084 484.795 368.33 483.355 367.689 481.981C366.735 497.183 352.124 502.914 339.45 495.517C337.197 494.203 334.777 491.067 334.543 488.375C333.537 476.772 348.8 475.635 355.922 470.482C372.39 457.464 381.759 437.224 394.545 420.88Z"/><path fill="#F5B543" d="M367.689 481.981C366.915 475.899 378.962 465.947 379.905 459.215C380.491 455.024 378.783 445.879 381.463 442.658C383.21 442.318 382.392 442.203 383.993 443.066C385.974 446.263 385.238 453.819 385.349 458.157C393.719 454.916 401.157 449.86 410.227 447.037C408.781 450.046 407.88 451.818 406.116 454.648C401.853 464.701 398.344 473.719 395.576 484.346C394.59 489.219 394.254 493.531 393.408 498.182C385.385 503.414 377.723 515.133 371.001 522.602C366.378 523.887 360.559 525.586 360.293 531.747C360.133 535.433 365.145 539.808 368.766 539.287C372.579 538.739 374.506 533.68 376.514 530.802L377.117 531.463C379.591 546.358 356.697 547.984 355.362 532.642C355.066 529.398 356.023 526.165 358.038 523.605C361.776 518.848 366.315 519.153 370.228 514.849C372.891 511.92 375.244 508.772 377.704 505.683L392.066 487.876C389.853 484.725 383.838 476.901 379.418 477.898C374.936 478.909 372.479 483.421 369.482 486.243C369.084 484.795 368.33 483.355 367.689 481.981Z"/><path fill="white" d="M406.116 454.648C401.853 464.701 398.344 473.719 395.576 484.346C387.121 473.796 375.189 468.594 393.797 460.809C397.833 459.121 401.649 456.245 406.116 454.648Z"/><path fill="#F5B543" d="M638.429 506.838C651.916 499.322 669.153 489.236 683.087 482.834C693.427 488.9 688.67 491.148 692.909 497.204C693.559 497.959 694.298 500.191 694.283 501.146C693.895 527.003 673.612 539.538 650.407 540.935C656.668 536.282 659.492 533.481 664.025 527.223C649.521 535.173 642.022 536.437 625.695 537.551C635.044 531.894 638.234 529.332 643.713 519.703C634.523 527.043 628.76 529.822 616.526 530.639C625.886 514.615 626.347 510.181 626.198 492.003C631.818 497.323 634.097 500.31 638.429 506.838Z"/><path fill="#F5B543" d="M487.143 500.866C480.221 492.18 479.895 492.739 469.273 492.502C467.96 492.472 466.897 491.899 466.055 490.889C465.938 488.988 465.802 489.917 466.721 488.047C471.86 483.88 488.851 487.435 489.799 495.307C488.355 502.114 487.637 507.676 486.924 514.604C486.632 521.274 486.568 526.117 487.336 532.811L488.203 537.547C489.199 543.052 490.59 548.478 492.363 553.784C493.353 555.786 496.177 561.208 496.786 563.036C496.141 569.177 496.611 589.657 496.979 595.996C502.041 596.132 518.991 594.964 521.855 598.123C522.037 600.261 522.302 599.395 521.553 601.032C518.388 602.214 501.362 601.875 496.575 601.985C496.456 606.924 495.394 618.301 498.342 621.854C499.397 623.148 500.939 623.95 502.604 624.073C506.862 624.422 510.34 620.954 510.62 616.89C510.834 613.79 509.073 612.478 507.23 610.323C510.887 610.436 513.128 613.165 513.763 616.717C516.039 626.744 500.876 632.185 495.323 625.866C488.646 618.268 490.99 594.891 491.062 585.528C487.598 581.262 471.63 565.578 466.982 562.26C465.27 561.84 464.066 562.608 462.363 563.295C460.814 558.746 459.443 554.002 458.807 549.234C456.508 540.637 455.54 527.064 456.897 518.307L457.39 514.655C470.869 513.662 483.077 517.98 487.143 500.866Z"/><path fill="white" d="M486.924 514.604C486.632 521.274 486.568 526.117 487.336 532.811L488.203 537.547C489.199 543.052 490.59 548.478 492.363 553.784C490.339 558.838 490.965 569.123 490.809 575.036C484.705 570.657 469.527 556.881 464.637 551.094C463.565 544.058 463.771 527.519 464.496 520.374C474.716 519.029 477.353 521.77 486.924 514.604Z"/><path fill="#F5B543" d="M476.806 532.989C480.322 532.776 483.814 532.814 487.336 532.811L488.203 537.547C485.625 537.552 482.069 537.394 479.742 538.22C479.378 539.677 479.356 540.523 478.21 541.457L477.285 541.282C476.703 539.601 476.831 534.999 476.806 532.989Z"/><path fill="white" d="M456.897 518.307C457.603 519.203 458.66 520.597 458.822 521.707C459.918 529.237 459.427 541.709 458.807 549.234C456.508 540.637 455.54 527.064 456.897 518.307Z"/><path fill="#F5B543" d="M413.685 293.941C425.824 294.227 430.544 293.407 442.081 289.712C450.19 287.115 461.223 290.313 468.051 295.53C466.292 298.536 464.485 301.745 462.645 304.68L459.565 311.78L457.319 319.494C451.271 319.488 445.777 319.38 439.754 320.234C432.675 321.595 426.476 322.731 419.585 324.97C419.963 311.44 420.617 307.644 405.483 307.3C400.875 311.314 393.726 321.683 389.545 326.978C382.576 336.008 375.72 345.164 368.385 353.901C364.751 358.229 358.614 369.335 352.367 369.029L352.169 368.544C354.286 366.168 358.887 361.518 357.336 358.103C355.839 354.804 351.533 350.125 347.266 351.743C343.525 353.161 342.894 358.628 341.62 359.412L340.927 358.601C339.797 353.706 343.17 348.771 348.061 347.746C353.078 346.695 357.435 349.472 361.362 352.205C366.881 346.599 372.41 339.135 377.259 332.836C383.719 324.384 390.245 315.982 396.837 307.633C387.192 308.025 371.456 310.053 369.075 297.488L372.38 296.413C382.832 290.896 388.656 292.969 400.419 294.18L413.685 293.941Z"/><path fill="white" d="M413.685 293.941C425.824 294.227 430.544 293.407 442.081 289.712C450.19 287.115 461.223 290.313 468.051 295.53C466.292 298.536 464.485 301.745 462.645 304.68C448.209 294.243 434.071 299.095 434.518 318.035L424.605 318.308C424.761 305.789 422.002 302.533 409.426 302.235L413.685 293.941Z"/><path fill="white" d="M372.38 296.413C382.832 290.896 388.656 292.969 400.419 294.18C402.389 294.872 404.569 295.153 405.404 296.558C405.035 298.469 403.101 300.724 401.974 302.477C394.393 302.221 386.81 302.026 379.225 301.893C376.484 299.921 374.894 298.663 372.38 296.413Z"/><path fill="white" d="M439.754 320.234C438.985 314.286 440.698 305.182 448.3 305.166C453.581 305.155 456.184 308.33 459.565 311.78L457.319 319.494C451.271 319.488 445.777 319.38 439.754 320.234Z"/><path fill="#F5B543" d="M492.743 234.271C502.833 232.346 524.534 233.467 534.942 236.066C539.485 239.337 545.58 242.323 550.712 246.07C570.739 260.693 584.582 277.173 592.277 300.842C586.206 300.856 582.088 301.384 576.134 302.519C552.281 264.861 534.634 249.952 492.743 234.271Z"/><path fill="white" d="M579.693 529.05C582.821 535.828 584.461 538.32 588.973 544.306L594.043 549.902C593.423 562.273 593.936 574.937 593.609 587.189C593.187 603.01 595.61 620.819 582.238 632.23C578.128 635.737 573.109 639.006 567.693 639.86L575.796 631.06C589.617 606.915 585.279 581.32 568.662 560.284C564.142 554.561 559.717 545.366 557.258 538.534C569.205 539.343 575.256 541.998 579.693 529.05Z"/><path fill="#F5B543" d="M588.973 544.306L594.043 549.902C593.423 562.273 593.936 574.937 593.609 587.189C593.187 603.01 595.61 620.819 582.238 632.23C578.128 635.737 573.109 639.006 567.693 639.86L575.796 631.06C581.307 627.338 587.435 615.304 587.578 608.631C587.85 595.992 587.829 583.289 587.921 570.637C584.469 570.507 577.912 570.99 575.919 567.64L576.303 566.998C579.729 564.753 583.819 565.296 587.961 565.319C587.944 558.066 587.708 551.476 588.973 544.306Z"/><path fill="#F5B543" d="M481.701 250.139L483.187 250.515L482.946 257.985C488.895 264.198 495.224 269.376 501.152 275.302L493.657 277.268C490.305 278.626 485.726 280.307 482.769 282.168C467.905 272.105 463.837 271.493 445.993 271.463C442.279 272.359 439.77 272.988 436.199 274.275C420.156 282.594 413.214 281.009 398.854 271.402C397.628 270.679 396.551 269.628 395.473 268.68C412.128 256.297 441.196 262.548 460.723 261.113C464.366 260.845 468.117 260.666 471.779 260.401C475.019 256.464 476.71 251.533 481.701 250.139Z"/><path fill="white" d="M398.854 271.402C407.546 267.288 420.811 265.827 430.223 268.268C433.413 269.095 434.627 270.892 435.935 273.698L436.199 274.275C420.156 282.594 413.214 281.009 398.854 271.402Z"/><path fill="white" d="M445.993 271.463C453.743 266.29 472.748 266.241 482.09 267.046C485.99 269.836 489.918 274.022 493.657 277.268C490.305 278.626 485.726 280.307 482.769 282.168C467.905 272.105 463.837 271.493 445.993 271.463Z"/><path fill="white" d="M405.877 350.628C417.889 354.314 417.08 361.504 417.09 372.203L411.7 376.069C407.469 379.619 403.613 382.837 399.609 386.655C398.789 387.597 397.787 388.831 396.909 389.673C388.566 389.74 380.222 389.732 371.878 389.65C367.4 395.968 356.408 413.893 348.592 416.105C343.38 417.58 335.268 410.267 334.978 404.238L335.793 402.508C336.92 403.76 338.781 405.864 340.073 406.818C341.967 408.247 344.39 408.78 346.71 408.278C351.898 407.132 369.364 382.171 372.967 376.517L379.03 373.595C387.824 368.503 392.753 358.461 404.022 351.994L405.877 350.628Z"/><path fill="#F5B543" d="M396.028 384.045C396.17 380.767 396.499 376.962 395.973 373.788C395.099 372.922 394.811 372.702 393.81 371.977C393.547 370.357 393.429 371.108 394.181 369.646C395.705 368.82 395.871 368.98 397.584 369.088C400.776 371.059 399.164 382.475 399.609 386.655C398.789 387.597 397.787 388.831 396.909 389.673C388.566 389.74 380.222 389.732 371.878 389.65C367.4 395.968 356.408 413.893 348.592 416.105C343.38 417.58 335.268 410.267 334.978 404.238L335.793 402.508C336.92 403.76 338.781 405.864 340.073 406.818C341.967 408.247 344.39 408.78 346.71 408.278C351.898 407.132 369.364 382.171 372.967 376.517L379.03 373.595L380.145 374.061C380.278 375.295 377.764 381.496 377.149 383.993C383.441 384.13 389.735 384.147 396.028 384.045Z"/><path fill="#F5B543" d="M405.877 350.628C417.889 354.314 417.08 361.504 417.09 372.203L411.7 376.069C411.542 370.72 413.613 362.943 409.108 358.88C406.784 356.784 403.316 355.029 404.022 351.994L405.877 350.628Z"/><path fill="white" d="M457.39 514.655C459.783 490.103 474.8 466.321 491.036 448.378C494.347 453.907 497.687 459.419 501.057 464.912C499.966 467.022 499.191 468.496 497.888 470.473L496.317 474.439C493.422 481.978 491.797 487.36 489.799 495.307C488.851 487.435 471.86 483.88 466.721 488.047C465.802 489.917 465.938 488.988 466.055 490.889C466.897 491.899 467.96 492.472 469.273 492.502C479.895 492.739 480.221 492.18 487.143 500.866C483.077 517.98 470.869 513.662 457.39 514.655Z"/><path fill="#F5B543" d="M496.317 474.439C491.626 474.5 481.696 475.292 478.272 472.403L478.28 471.6C481.425 468.751 494.428 468.646 497.888 470.473L496.317 474.439Z"/><path fill="white" d="M419.188 394.017C434.492 382.916 452.34 375.841 471.093 373.44C476.704 378.152 482.461 382.441 486.19 388.777L485.499 389.056C480.04 391.229 474.245 392.574 468.674 394.508C462.053 396.806 456.542 399.912 450.488 403.324L445.747 406.698C443.061 408.784 439.871 411.139 437.314 413.308C437.347 412.83 437.373 412.351 437.392 411.872C437.841 399.684 430.566 394.249 419.188 394.017Z"/><path fill="#F5B543" d="M445.242 381.464L450.454 379.384C450.573 387.423 450.71 395.279 450.488 403.324L445.747 406.698C444.966 401.842 445.235 387.112 445.242 381.464Z"/><path fill="#F5B543" d="M463.519 376.965L466.525 377.092L466.972 377.714C467.281 380.973 467.795 389.666 466.859 392.713C465.366 392.861 465.082 392.855 463.582 392.742C462.518 390.962 462.713 379.17 463.519 376.965Z"/><path fill="white" d="M405.877 350.628C421.178 341.187 437.706 337.376 455.543 337.423C456.584 344.294 457.627 349.519 459.621 356.272C449.981 357.692 444.37 359.361 435.211 362.974L430.39 365.136C425.459 367.536 421.831 369.472 417.09 372.203C417.08 361.504 417.889 354.314 405.877 350.628Z"/><path fill="#F5B543" d="M430.39 365.136C430.384 359.622 429.699 346.232 431.805 342.025C433.353 340.864 432.511 341.143 434.404 341.107C435.847 344.116 435.231 358.635 435.211 362.974L430.39 365.136Z"/><path fill="#F5B543" d="M447.141 338.666C448.251 339.048 449.396 339.155 449.675 340.356C450.502 343.918 450.7 355.393 449.116 358.257C447.846 357.939 447.844 357.935 446.697 357.301C445.352 353.946 445.066 341.491 447.141 338.666Z"/><path fill="white" d="M419.188 394.017C430.566 394.249 437.841 399.684 437.392 411.872C437.373 412.351 437.347 412.83 437.314 413.308C432.904 418.321 428.341 423.198 423.632 427.93C418.588 428.645 405.283 429.356 400.545 427.712C397.303 426.587 395.802 423.893 394.545 420.88L396.165 418.636C399.681 413.342 404.881 407.768 409.181 403.054L410.189 401.876C412.596 399.071 416.154 396.14 419.188 394.017Z"/><path fill="#F5B543" d="M419.188 394.017C430.566 394.249 437.841 399.684 437.392 411.872C437.373 412.351 437.347 412.83 437.314 413.308C432.904 418.321 428.341 423.198 423.632 427.93C418.588 428.645 405.283 429.356 400.545 427.712C397.303 426.587 395.802 423.893 394.545 420.88L396.165 418.636C398.313 419.898 400.388 421.536 402.399 423.03C410.156 423.335 421.62 424.273 427.74 418.965C430.329 416.752 431.9 413.577 432.089 410.177C432.248 407.233 431.138 404.363 429.041 402.292C423.135 396.572 416.923 401.217 412.562 405.888C412.207 409.957 416.255 414.475 418.695 417.516C410.934 414.279 408.683 411.764 409.181 403.054L410.189 401.876C412.596 399.071 416.154 396.14 419.188 394.017Z"/><path fill="white" d="M554.604 500.375C562.611 502.405 568.949 503.167 577.091 504.153C576.676 509.942 576.619 512.967 577.128 518.749C577.857 522.074 578.583 525.878 579.693 529.05C575.256 541.998 569.205 539.343 557.258 538.534L556.23 534.175C553.283 523.153 552.728 511.629 554.604 500.375Z"/><path fill="#F5B543" d="M577.128 518.749C577.857 522.074 578.583 525.878 579.693 529.05C575.256 541.998 569.205 539.343 557.258 538.534L556.23 534.175C560.498 534.126 568.088 534.542 571.739 532.45C578.393 528.638 569.436 522.423 577.128 518.749Z"/><path fill="white" d="M335.793 402.508C325.682 400.764 319.486 388.474 331.156 384.621C338.237 381.982 347.209 384.8 354.35 383.537C359.819 382.57 367.715 378.68 372.967 376.517C369.364 382.171 351.898 407.132 346.71 408.278C344.39 408.78 341.967 408.247 340.073 406.818C338.781 405.864 336.92 403.76 335.793 402.508Z"/><path fill="#F5B543" d="M574.101 248.78C583.242 250.446 604.366 266.834 610.705 274.231C611.006 276.101 613.856 281.995 614.678 284.194C617.956 292.966 618.081 300.041 618.249 309.166L609.641 306.602C600.888 280.829 592.772 267.921 574.101 248.78Z"/><path fill="white" d="M483.187 250.515C503.608 254.497 533.276 270.716 546.907 286.65C532.098 276.836 519.143 272.816 501.152 275.302C495.224 269.376 488.895 264.198 482.946 257.985L483.187 250.515Z"/><path fill="#F5B543" d="M401.066 333.427L400.941 332.622C400.446 329.378 399.958 328.424 401.851 325.84C405.264 324.081 406.304 327.099 407.334 329.742L401.066 333.427Z"/><path fill="white" d="M517.029 482.669C520.22 484.78 533.345 492.379 534.176 494.54C532.006 503.138 533.168 519.413 534.434 527.998C535.751 534.014 536.916 538.77 539.119 544.537C540.478 547.224 542.497 550.952 543.631 553.635C543.523 565.95 540.592 574.198 526.262 573.339C525.843 573.314 525.425 573.286 525.007 573.255C524.079 571.726 523.213 570.099 522.344 568.531C519.045 563.032 516.048 557.356 513.365 551.531C505.29 533.778 504.742 511.973 511.61 493.819L513.697 489.268C514.734 487.152 515.867 484.683 517.029 482.669Z"/><path fill="#F5B543" d="M517.112 544.338C524.448 544.265 531.785 544.332 539.119 544.537C540.478 547.224 542.497 550.952 543.631 553.635C543.523 565.95 540.592 574.198 526.262 573.339C525.843 573.314 525.425 573.286 525.007 573.255C524.079 571.726 523.213 570.099 522.344 568.531C523.555 568.488 524.765 568.435 525.975 568.373C539.632 567.656 538.276 560.041 537.33 549.141C532.231 548.944 526.516 549.079 521.37 549.09C521.193 551.959 521.253 553.932 520.081 556.596L518.414 557.064C516.466 553.714 516.966 548.206 517.112 544.338Z"/><path fill="#F5B543" d="M531.018 523.052C530.998 514.593 530.137 503.905 531.02 495.612C531.868 494.586 532.445 494.839 534.176 494.54C532.006 503.138 533.168 519.413 534.434 527.998C527.768 529.661 521.388 527.821 517.335 531.299C514.338 530.883 514.867 530.661 513.462 528.06C516.503 523.736 513.36 512.678 517.608 511.554C520.035 513.901 519.523 519.308 519.619 522.989L531.018 523.052Z"/><path fill="#F5B543" d="M513.697 489.268C518.059 488.328 523.669 488.249 526.948 491.849L527.023 492.932C524.345 495.639 515.323 494.271 511.61 493.819L513.697 489.268Z"/><path fill="#F5B543" d="M517.335 531.299C515.378 533.464 514.189 535.602 511.135 535.607L510.32 534.708C510.039 531.599 511.501 530.471 513.462 528.06C514.867 530.661 514.338 530.883 517.335 531.299Z"/><path fill="white" d="M543.631 553.635C549.26 561.545 556.099 569.309 560.928 577.471L563.557 580.916C569.235 589.625 569.579 602.809 566.524 612.477C561.812 627.391 550.463 638.141 536.914 645.258C539.901 639.656 542.929 632.971 543.576 626.626C546.112 601.744 538.456 591.484 525.007 573.255C525.425 573.286 525.843 573.314 526.262 573.339C540.592 574.198 543.523 565.95 543.631 553.635Z"/><path fill="#F5B543" d="M560.928 577.471L563.557 580.916C561.262 589.488 557.247 601.646 545.671 600.875C544.352 600.788 543.046 600.37 542.194 599.319C543.355 595.92 551.819 594.586 554.079 591.91C558.014 587.251 555.813 581.835 560.928 577.471Z"/><path fill="#F5B543" d="M549.733 356.647L551.135 356.69C553.527 359.209 560.119 378.293 561.557 382.638C542.33 382.227 531.028 384.326 514.193 393.999L505.231 399.613C505.792 391.991 510.125 376.069 514.503 369.765C520.399 361.276 539.845 358.371 549.733 356.647Z"/><path fill="#0887C9" d="M677.391 708.481L698.267 708.507C691.95 723.307 695.48 745.083 695.318 761.14C695.295 763.413 697.657 767.3 697.927 770.175L697.099 770.611L674.581 770.692L674.508 765.38C671.836 761.285 666.894 755.326 663.763 751.402C657.302 743.303 650.788 735.246 644.224 727.23C643.839 740.815 642.899 757.939 647.512 770.523C640.717 770.719 633.4 770.604 626.563 770.613C626.761 770.244 626.955 769.874 627.143 769.5C631.22 761.375 629.971 750.456 630.096 741.526C630.257 730.042 630.454 719.524 626.841 708.518L652.062 708.506C654.493 719.413 673.144 740.902 680.913 750.743C680.98 736.784 682.745 721.592 677.391 708.481Z"/><path fill="#0887C9" d="M556.668 708.531L621.677 708.485C618.819 713.378 615.829 718.355 613.155 723.339C603.033 722.314 585.275 722.72 574.509 722.705L574.484 733.358C584.849 733.605 596.04 733.447 606.467 733.47L606.481 746.145C596.94 745.82 586.483 746.013 576.875 746C575.621 745.954 576.062 745.871 574.876 746.375C573.902 749.059 574.378 753.289 574.484 756.312C581.713 756.475 607.857 757.249 613.289 755.283C616.356 760.025 619.023 765.566 621.546 770.642C600.126 771.134 578.1 770.469 556.509 770.823C557.461 769.337 560.153 765.031 560.206 763.119C560.641 747.69 561.199 730.525 559.87 715.206C559.651 712.682 557.96 710.36 556.668 708.531Z"/><path fill="#0887C9" d="M307.235 708.553C319.047 708.528 351.623 706.814 360.951 711.148C365.404 713.217 368.864 716.738 370.463 721.42C372.403 727.101 371.88 734.443 369.181 739.806C366.508 745.116 361.983 748.155 356.496 750.004C362.429 758.388 367.098 763.49 374.107 770.858L351.045 770.804C349.504 762.383 345.285 757.149 340.007 750.624L332.875 750.614L323.996 750.717C323.789 759.712 323.245 762.42 326.891 770.598C320.718 770.96 312.775 770.753 306.336 770.899C311.773 761.554 310.085 747.654 309.992 736.448C318.04 736.437 349.882 738.08 355.119 734.951C356.67 734.024 357.86 732.656 358.123 730.806C358.378 729.015 357.814 727.522 356.65 726.18C355.048 724.333 352.072 723.517 349.758 723.182C345.197 722.524 340.201 722.905 335.595 722.933L310.116 723.159C309.848 716.52 309.417 714.898 307.235 708.553Z"/><path fill="#0887C9" d="M453.664 708.641C461.166 708.763 468.669 708.756 476.171 708.618C467.45 717.073 458.577 729.002 451.3 738.774C459.952 749.473 468.705 760.089 477.558 770.621L472.625 770.683L455.351 770.722C454.443 762.801 447.182 754.467 442.291 747.912C437.785 753.788 433.43 759.78 429.232 765.88L429.381 770.967L406.97 770.884C415.545 760.14 425.102 749.226 433.865 738.349C428.839 731.957 423.729 725.632 418.536 719.374C415.829 716.168 412.266 712.527 409.78 709.372L410.588 708.753C416.9 708.441 424.894 708.68 431.337 708.709C432.134 717.529 437.318 723.039 442.495 730.029C448.811 721.473 451.542 719.098 453.664 708.641Z"/><path fill="#0887C9" d="M533.025 708.516L552.667 708.587C552.434 708.888 552.207 709.194 551.987 709.504C545.78 718.26 531.862 752.181 528.01 763.859C527.529 765.317 528.176 768.972 528.448 770.67C519.728 770.584 511.008 770.579 502.288 770.656C504.036 764.792 502.293 761.79 499.99 756.32C496.579 748.217 493.006 740.151 489.496 732.091C485.985 723.934 482.946 716.421 478.267 708.832L497.377 708.838C498.433 722.23 509.241 744.609 515.094 757.309C520.804 746.472 532.479 719.835 533.025 708.516Z"/><path fill="#0887C9" d="M381.273 708.608C388.375 708.546 395.636 708.658 402.751 708.689C395.475 721.77 399.859 747.16 399.142 762.344C399.114 762.937 401.439 768.767 401.837 769.785L401.447 770.667L380.497 770.821C381.614 769.075 382.931 767.235 383.657 765.287C385.347 760.752 385.227 720.881 384.314 715.492C383.927 713.21 382.257 710.72 381.273 708.608Z"/><path fill="#F5B543" d="M412.9 488.098C415.545 489.085 423.764 497.29 425.831 499.716C426.235 505.264 426.12 511.926 426.428 517.753C428.744 516.601 431.097 515.037 433.553 515.713L433.826 516.553C432.591 520.608 428.623 523.246 425.717 526.476C425.391 537.724 425.744 549.006 425.664 560.258C425.644 563.033 425.733 565.61 425.182 568.342C423.864 569.322 422.573 569.015 420.85 568.953C420.249 560.063 420.559 548.525 420.565 539.453C416.001 539.069 410.313 539.164 405.657 539.12L406 533.486L420.583 533.355C420.541 522.803 420.567 512.251 420.66 501.699C415.822 497.259 411.705 495.149 412.9 488.098Z"/><path fill="#F5B543" d="M347.792 439.445C346.906 444.584 343.239 448.969 337.677 448.642C334.131 448.402 330.839 446.716 328.573 443.978C324.117 438.668 324.446 430.943 330.185 426.842C335.491 423.051 339.577 423.239 345.712 423.381C354.182 423.577 362.777 422.478 371.181 423.637L368.768 427.952C360.749 428.02 337.195 426.204 332.626 430.899C331.29 432.298 330.6 434.192 330.721 436.122C330.878 438.434 331.964 440.583 333.731 442.081C337.919 445.63 343.031 443.934 346.167 439.936L347.792 439.445Z"/><path fill="#F5B543" d="M448.645 572.951C449.612 574.784 450.665 576.7 451.558 578.558C449.399 581.109 444.469 586.71 443.165 589.376C441.219 593.358 441.05 599.108 437.582 602.906C436.192 604.49 434.039 605.937 431.831 605.931C424.608 605.911 417.823 602.003 418.269 593.984C418.448 590.772 419.967 588.702 422.281 586.641C423.657 585.416 425.913 584.644 427.686 584.832C421.634 591.342 417.783 599.432 430.772 600.654C437.464 601.283 435.997 592.812 437.379 588.861C439.378 583.143 444.375 577.248 448.645 572.951Z"/><path fill="#F5B543" d="M437.005 473.301C434.124 469.707 426.721 464.279 426.125 460.535C426.768 458.885 426.576 458.746 427.831 457.713C431.046 458.769 439.559 467.458 441.872 470.381C442.324 475.563 441.841 482.566 441.989 488.126C441.408 490.395 440.723 493.398 440.057 495.583L437.722 494.95C436.421 493.305 436.981 476.649 437.005 473.301Z"/><path fill="#F5B543" d="M480.397 428.326C475.196 427.655 459.942 429.591 456.527 426.944L456.431 426.017C456.65 425.687 457.007 425.1 457.29 424.934C461.403 422.524 479.835 423.282 484.157 424.101C482.93 426.366 482.419 426.677 480.397 428.326Z"/><path fill="#F5B543" d="M455.99 440.242C458.954 440.121 461.616 439.536 463.789 441.343C464.098 443.46 464.309 442.531 463.314 444.262C459.891 446.308 453.076 445.587 448.843 445.512C446.012 445.562 441.515 446.469 440.543 443.553C440.699 442.864 440.96 441.313 441.484 441.014C443.676 439.763 453.449 440.238 455.99 440.242Z"/><path fill="#4BA7D2" d="M346.402 507.997C352.589 505.797 360.232 505.98 361.864 513.664L361.416 514.39C360.734 513.964 360.817 514.168 360.672 513.387C359.502 507.107 352.362 507.383 346.914 508.847L346.402 507.997Z"/><path fill="#4BA7D2" d="M432.382 249.134C428.478 250.088 427.114 251.211 422.493 251.838L422.373 251.582C425.749 249.816 426.97 249.268 430.583 248.093L432.382 249.134Z"/><path fill="#4BA7D2" d="M405.746 576.187C408.586 573.469 411.644 572.562 415.28 571.233C411.243 573.712 408.746 575.064 405.3 578.297L405.746 576.187Z"/><path fill="#4BA7D2" d="M478.861 632.339C480.063 628.7 480.241 627.554 483.119 625.076L483.305 625.521C482.168 627.694 480.832 629.982 480.368 632.38L478.861 632.339Z"/><path fill="#E6C083" d="M346.167 439.936C346.343 438.628 346.48 436.237 347.088 435.312L347.723 435.535L346.98 435.734L347.801 436.24C347.812 436.996 347.894 438.789 347.792 439.445L346.167 439.936Z"/></svg>